<mxfile host="app.diagrams.net" modified="2022-04-01T17:49:27.779Z" agent="5.0 (Macintosh; Intel Mac OS X 10_15_6) AppleWebKit/605.1.15 (KHTML, like Gecko) Version/15.4 Safari/605.1.15" etag="G-Z1ARSWXzHywDDxoNE_" version="17.4.0" type="github">
  <diagram id="Utbdjj3-p3kCRXdwDU8F" name="Page-1">
    <mxGraphModel dx="6608" dy="3317" grid="1" gridSize="10" guides="1" tooltips="1" connect="1" arrows="1" fold="1" page="1" pageScale="1" pageWidth="827" pageHeight="1169" math="0" shadow="0">
      <root>
        <mxCell id="0" />
        <mxCell id="1" parent="0" />
        <mxCell id="gwXPmiW9-v_74yrq-nhE-3" value="AWS Cloud" style="points=[[0,0],[0.25,0],[0.5,0],[0.75,0],[1,0],[1,0.25],[1,0.5],[1,0.75],[1,1],[0.75,1],[0.5,1],[0.25,1],[0,1],[0,0.75],[0,0.5],[0,0.25]];outlineConnect=0;gradientColor=none;html=1;whiteSpace=wrap;fontSize=12;fontStyle=0;container=1;pointerEvents=0;collapsible=0;recursiveResize=0;shape=mxgraph.aws4.group;grIcon=mxgraph.aws4.group_aws_cloud_alt;strokeColor=#232F3E;fillColor=none;verticalAlign=top;align=left;spacingLeft=30;fontColor=#232F3E;dashed=0;" parent="1" vertex="1">
          <mxGeometry x="-3010" y="-480" width="2740" height="840" as="geometry" />
        </mxCell>
        <mxCell id="4ZW8SQwC3H2Tp52ZixBB-3" value="Region" style="points=[[0,0],[0.25,0],[0.5,0],[0.75,0],[1,0],[1,0.25],[1,0.5],[1,0.75],[1,1],[0.75,1],[0.5,1],[0.25,1],[0,1],[0,0.75],[0,0.5],[0,0.25]];outlineConnect=0;gradientColor=none;html=1;whiteSpace=wrap;fontSize=12;fontStyle=0;container=1;pointerEvents=0;collapsible=0;recursiveResize=0;shape=mxgraph.aws4.group;grIcon=mxgraph.aws4.group_region;strokeColor=#147EBA;fillColor=none;verticalAlign=top;align=left;spacingLeft=30;fontColor=#147EBA;dashed=1;" parent="gwXPmiW9-v_74yrq-nhE-3" vertex="1">
          <mxGeometry x="44.5" y="40" width="2635.5" height="730" as="geometry" />
        </mxCell>
        <mxCell id="GcM1J28nANcI8CVDfX0t-31" style="edgeStyle=orthogonalEdgeStyle;rounded=0;orthogonalLoop=1;jettySize=auto;html=1;" parent="4ZW8SQwC3H2Tp52ZixBB-3" source="GcM1J28nANcI8CVDfX0t-12" target="GcM1J28nANcI8CVDfX0t-24" edge="1">
          <mxGeometry relative="1" as="geometry">
            <Array as="points">
              <mxPoint x="1896" y="255" />
              <mxPoint x="1896" y="255" />
            </Array>
          </mxGeometry>
        </mxCell>
        <mxCell id="GcM1J28nANcI8CVDfX0t-12" value="Mensageria" style="fillColor=none;strokeColor=#5A6C86;dashed=1;verticalAlign=top;fontStyle=0;fontColor=#5A6C86;" parent="4ZW8SQwC3H2Tp52ZixBB-3" vertex="1">
          <mxGeometry x="1485.5" y="130" width="314.5" height="300" as="geometry" />
        </mxCell>
        <mxCell id="PenCrC6DvGoU3g6hiDPV-1" value="VPC" style="points=[[0,0],[0.25,0],[0.5,0],[0.75,0],[1,0],[1,0.25],[1,0.5],[1,0.75],[1,1],[0.75,1],[0.5,1],[0.25,1],[0,1],[0,0.75],[0,0.5],[0,0.25]];outlineConnect=0;gradientColor=none;html=1;whiteSpace=wrap;fontSize=12;fontStyle=0;container=1;pointerEvents=0;collapsible=0;recursiveResize=0;shape=mxgraph.aws4.group;grIcon=mxgraph.aws4.group_vpc;strokeColor=#248814;fillColor=none;verticalAlign=top;align=left;spacingLeft=30;fontColor=#AAB7B8;dashed=0;" parent="4ZW8SQwC3H2Tp52ZixBB-3" vertex="1">
          <mxGeometry x="41" y="30" width="619" height="610" as="geometry" />
        </mxCell>
        <mxCell id="PenCrC6DvGoU3g6hiDPV-5" value="Security group" style="fillColor=none;strokeColor=#DD3522;verticalAlign=top;fontStyle=0;fontColor=#DD3522;" parent="PenCrC6DvGoU3g6hiDPV-1" vertex="1">
          <mxGeometry x="39.5" y="20" width="540" height="550" as="geometry" />
        </mxCell>
        <mxCell id="gwXPmiW9-v_74yrq-nhE-2" value="Amazon API Gateway" style="sketch=0;outlineConnect=0;fontColor=#232F3E;gradientColor=none;strokeColor=#ffffff;fillColor=#232F3E;dashed=0;verticalLabelPosition=middle;verticalAlign=bottom;align=center;html=1;whiteSpace=wrap;fontSize=10;fontStyle=1;spacing=3;shape=mxgraph.aws4.productIcon;prIcon=mxgraph.aws4.api_gateway;" parent="PenCrC6DvGoU3g6hiDPV-1" vertex="1">
          <mxGeometry x="434.5" y="170" width="80" height="110" as="geometry" />
        </mxCell>
        <mxCell id="GcM1J28nANcI8CVDfX0t-3" style="edgeStyle=orthogonalEdgeStyle;rounded=0;orthogonalLoop=1;jettySize=auto;html=1;" parent="PenCrC6DvGoU3g6hiDPV-1" source="gwXPmiW9-v_74yrq-nhE-15" target="gwXPmiW9-v_74yrq-nhE-25" edge="1">
          <mxGeometry relative="1" as="geometry">
            <Array as="points">
              <mxPoint x="270" y="220" />
            </Array>
          </mxGeometry>
        </mxCell>
        <mxCell id="GcM1J28nANcI8CVDfX0t-4" style="edgeStyle=orthogonalEdgeStyle;rounded=0;orthogonalLoop=1;jettySize=auto;html=1;" parent="PenCrC6DvGoU3g6hiDPV-1" target="gwXPmiW9-v_74yrq-nhE-2" edge="1">
          <mxGeometry relative="1" as="geometry">
            <mxPoint x="220.5" y="220" as="sourcePoint" />
            <Array as="points">
              <mxPoint x="220" y="220" />
            </Array>
          </mxGeometry>
        </mxCell>
        <mxCell id="gwXPmiW9-v_74yrq-nhE-15" value="AWS Cloud" style="points=[[0,0],[0.25,0],[0.5,0],[0.75,0],[1,0],[1,0.25],[1,0.5],[1,0.75],[1,1],[0.75,1],[0.5,1],[0.25,1],[0,1],[0,0.75],[0,0.5],[0,0.25]];outlineConnect=0;gradientColor=none;html=1;whiteSpace=wrap;fontSize=12;fontStyle=0;container=1;pointerEvents=0;collapsible=0;recursiveResize=0;shape=mxgraph.aws4.group;grIcon=mxgraph.aws4.group_aws_cloud;strokeColor=#232F3E;fillColor=none;verticalAlign=top;align=left;spacingLeft=30;fontColor=#232F3E;dashed=0;rotation=0;" parent="PenCrC6DvGoU3g6hiDPV-1" vertex="1">
          <mxGeometry x="60" y="120" width="160" height="300" as="geometry" />
        </mxCell>
        <mxCell id="gwXPmiW9-v_74yrq-nhE-14" value="AWS WAF" style="sketch=0;outlineConnect=0;fontColor=#232F3E;gradientColor=none;strokeColor=#ffffff;fillColor=#232F3E;dashed=0;verticalLabelPosition=middle;verticalAlign=bottom;align=center;html=1;whiteSpace=wrap;fontSize=10;fontStyle=1;spacing=3;shape=mxgraph.aws4.productIcon;prIcon=mxgraph.aws4.waf;" parent="gwXPmiW9-v_74yrq-nhE-15" vertex="1">
          <mxGeometry x="40" y="175" width="80" height="100" as="geometry" />
        </mxCell>
        <mxCell id="gwXPmiW9-v_74yrq-nhE-18" value="Amazon Route 53" style="sketch=0;outlineConnect=0;fontColor=#232F3E;gradientColor=none;strokeColor=#ffffff;fillColor=#232F3E;dashed=0;verticalLabelPosition=middle;verticalAlign=bottom;align=center;html=1;whiteSpace=wrap;fontSize=10;fontStyle=1;spacing=3;shape=mxgraph.aws4.productIcon;prIcon=mxgraph.aws4.route_53;" parent="gwXPmiW9-v_74yrq-nhE-15" vertex="1">
          <mxGeometry x="40" y="40" width="80" height="110" as="geometry" />
        </mxCell>
        <mxCell id="gwXPmiW9-v_74yrq-nhE-25" value="Lambda&lt;br&gt;Authotizer" style="sketch=0;outlineConnect=0;fontColor=#232F3E;gradientColor=none;strokeColor=#232F3E;fillColor=#ffffff;dashed=0;verticalLabelPosition=bottom;verticalAlign=top;align=center;html=1;fontSize=12;fontStyle=0;aspect=fixed;shape=mxgraph.aws4.resourceIcon;resIcon=mxgraph.aws4.lambda_function;" parent="PenCrC6DvGoU3g6hiDPV-1" vertex="1">
          <mxGeometry x="239.5" y="450" width="60" height="60" as="geometry" />
        </mxCell>
        <mxCell id="gwXPmiW9-v_74yrq-nhE-27" value="Amazon S3" style="sketch=0;outlineConnect=0;fontColor=#232F3E;gradientColor=none;strokeColor=#ffffff;fillColor=#232F3E;dashed=0;verticalLabelPosition=middle;verticalAlign=bottom;align=center;html=1;whiteSpace=wrap;fontSize=10;fontStyle=1;spacing=3;shape=mxgraph.aws4.productIcon;prIcon=mxgraph.aws4.s3;" parent="PenCrC6DvGoU3g6hiDPV-1" vertex="1">
          <mxGeometry x="269.5" y="60" width="80" height="100" as="geometry" />
        </mxCell>
        <mxCell id="PenCrC6DvGoU3g6hiDPV-35" value="VPC" style="points=[[0,0],[0.25,0],[0.5,0],[0.75,0],[1,0],[1,0.25],[1,0.5],[1,0.75],[1,1],[0.75,1],[0.5,1],[0.25,1],[0,1],[0,0.75],[0,0.5],[0,0.25]];outlineConnect=0;gradientColor=none;html=1;whiteSpace=wrap;fontSize=12;fontStyle=0;container=1;pointerEvents=0;collapsible=0;recursiveResize=0;shape=mxgraph.aws4.group;grIcon=mxgraph.aws4.group_vpc;strokeColor=#248814;fillColor=none;verticalAlign=top;align=left;spacingLeft=30;fontColor=#AAB7B8;dashed=0;" parent="4ZW8SQwC3H2Tp52ZixBB-3" vertex="1">
          <mxGeometry x="800.5" y="55" width="649.5" height="475" as="geometry" />
        </mxCell>
        <mxCell id="PenCrC6DvGoU3g6hiDPV-42" value="Security group" style="fillColor=none;strokeColor=#DD3522;verticalAlign=top;fontStyle=0;fontColor=#DD3522;" parent="PenCrC6DvGoU3g6hiDPV-35" vertex="1">
          <mxGeometry x="30" y="40" width="559.5" height="390" as="geometry" />
        </mxCell>
        <mxCell id="GcM1J28nANcI8CVDfX0t-7" style="edgeStyle=orthogonalEdgeStyle;rounded=0;orthogonalLoop=1;jettySize=auto;html=1;entryX=0;entryY=0.5;entryDx=0;entryDy=0;" parent="PenCrC6DvGoU3g6hiDPV-35" source="PenCrC6DvGoU3g6hiDPV-36" target="PenCrC6DvGoU3g6hiDPV-37" edge="1">
          <mxGeometry relative="1" as="geometry" />
        </mxCell>
        <mxCell id="PenCrC6DvGoU3g6hiDPV-36" value="Application Load Balancer" style="sketch=0;outlineConnect=0;fontColor=#232F3E;gradientColor=none;strokeColor=#ffffff;fillColor=#232F3E;dashed=0;verticalLabelPosition=middle;verticalAlign=bottom;align=center;html=1;whiteSpace=wrap;fontSize=10;fontStyle=1;spacing=3;shape=mxgraph.aws4.productIcon;prIcon=mxgraph.aws4.application_load_balancer;" parent="PenCrC6DvGoU3g6hiDPV-35" vertex="1">
          <mxGeometry x="45" y="162.5" width="80" height="110" as="geometry" />
        </mxCell>
        <mxCell id="PenCrC6DvGoU3g6hiDPV-37" value="Producer Serveless" style="points=[[0,0],[0.25,0],[0.5,0],[0.75,0],[1,0],[1,0.25],[1,0.5],[1,0.75],[1,1],[0.75,1],[0.5,1],[0.25,1],[0,1],[0,0.75],[0,0.5],[0,0.25]];outlineConnect=0;gradientColor=none;html=1;whiteSpace=wrap;fontSize=12;fontStyle=0;container=1;pointerEvents=0;collapsible=0;recursiveResize=0;shape=mxgraph.aws4.group;grIcon=mxgraph.aws4.group_on_premise;strokeColor=#5A6C86;fillColor=none;verticalAlign=top;align=left;spacingLeft=30;fontColor=#5A6C86;dashed=0;" parent="PenCrC6DvGoU3g6hiDPV-35" vertex="1">
          <mxGeometry x="170" y="85" width="310" height="265" as="geometry" />
        </mxCell>
        <mxCell id="PenCrC6DvGoU3g6hiDPV-39" value="AWS Lambda Registro" style="sketch=0;outlineConnect=0;fontColor=#232F3E;gradientColor=none;strokeColor=#ffffff;fillColor=#232F3E;dashed=0;verticalLabelPosition=middle;verticalAlign=bottom;align=center;html=1;whiteSpace=wrap;fontSize=10;fontStyle=1;spacing=3;shape=mxgraph.aws4.productIcon;prIcon=mxgraph.aws4.lambda;" parent="PenCrC6DvGoU3g6hiDPV-35" vertex="1">
          <mxGeometry x="355" y="160" width="80" height="115" as="geometry" />
        </mxCell>
        <mxCell id="PenCrC6DvGoU3g6hiDPV-38" value="AWS Lambda Pessoa" style="sketch=0;outlineConnect=0;fontColor=#232F3E;gradientColor=none;strokeColor=#ffffff;fillColor=#232F3E;dashed=0;verticalLabelPosition=middle;verticalAlign=bottom;align=center;html=1;whiteSpace=wrap;fontSize=10;fontStyle=1;spacing=3;shape=mxgraph.aws4.productIcon;prIcon=mxgraph.aws4.lambda;" parent="PenCrC6DvGoU3g6hiDPV-35" vertex="1">
          <mxGeometry x="215" y="160" width="80" height="115" as="geometry" />
        </mxCell>
        <mxCell id="GcM1J28nANcI8CVDfX0t-8" style="edgeStyle=orthogonalEdgeStyle;rounded=0;orthogonalLoop=1;jettySize=auto;html=1;" parent="4ZW8SQwC3H2Tp52ZixBB-3" source="gwXPmiW9-v_74yrq-nhE-2" target="PenCrC6DvGoU3g6hiDPV-35" edge="1">
          <mxGeometry relative="1" as="geometry">
            <Array as="points">
              <mxPoint x="746" y="255" />
              <mxPoint x="746" y="255" />
            </Array>
          </mxGeometry>
        </mxCell>
        <mxCell id="GcM1J28nANcI8CVDfX0t-9" value="SQS Queue&lt;br&gt;Pessoa" style="sketch=0;outlineConnect=0;fontColor=#232F3E;gradientColor=none;strokeColor=#232F3E;fillColor=#ffffff;dashed=0;verticalLabelPosition=bottom;verticalAlign=top;align=center;html=1;fontSize=12;fontStyle=0;aspect=fixed;shape=mxgraph.aws4.resourceIcon;resIcon=mxgraph.aws4.queue;" parent="4ZW8SQwC3H2Tp52ZixBB-3" vertex="1">
          <mxGeometry x="1695.5" y="150" width="60" height="60" as="geometry" />
        </mxCell>
        <mxCell id="GcM1J28nANcI8CVDfX0t-10" value="SQS Queue&lt;br&gt;Registro" style="sketch=0;outlineConnect=0;fontColor=#232F3E;gradientColor=none;strokeColor=#232F3E;fillColor=#ffffff;dashed=0;verticalLabelPosition=bottom;verticalAlign=top;align=center;html=1;fontSize=12;fontStyle=0;aspect=fixed;shape=mxgraph.aws4.resourceIcon;resIcon=mxgraph.aws4.queue;" parent="4ZW8SQwC3H2Tp52ZixBB-3" vertex="1">
          <mxGeometry x="1695.5" y="262.5" width="60" height="60" as="geometry" />
        </mxCell>
        <mxCell id="GcM1J28nANcI8CVDfX0t-15" style="edgeStyle=orthogonalEdgeStyle;rounded=0;orthogonalLoop=1;jettySize=auto;html=1;exitX=1;exitY=0.5;exitDx=0;exitDy=0;" parent="4ZW8SQwC3H2Tp52ZixBB-3" source="PenCrC6DvGoU3g6hiDPV-37" edge="1">
          <mxGeometry relative="1" as="geometry">
            <mxPoint x="1485.5" y="272" as="targetPoint" />
            <Array as="points">
              <mxPoint x="1485" y="272" />
            </Array>
          </mxGeometry>
        </mxCell>
        <mxCell id="GcM1J28nANcI8CVDfX0t-24" value="VPC" style="points=[[0,0],[0.25,0],[0.5,0],[0.75,0],[1,0],[1,0.25],[1,0.5],[1,0.75],[1,1],[0.75,1],[0.5,1],[0.25,1],[0,1],[0,0.75],[0,0.5],[0,0.25]];outlineConnect=0;gradientColor=none;html=1;whiteSpace=wrap;fontSize=12;fontStyle=0;container=1;pointerEvents=0;collapsible=0;recursiveResize=0;shape=mxgraph.aws4.group;grIcon=mxgraph.aws4.group_vpc;strokeColor=#248814;fillColor=none;verticalAlign=top;align=left;spacingLeft=30;fontColor=#AAB7B8;dashed=0;" parent="4ZW8SQwC3H2Tp52ZixBB-3" vertex="1">
          <mxGeometry x="1915.5" y="55" width="649.5" height="505" as="geometry" />
        </mxCell>
        <mxCell id="GcM1J28nANcI8CVDfX0t-25" value="Security group" style="fillColor=none;strokeColor=#DD3522;verticalAlign=top;fontStyle=0;fontColor=#DD3522;" parent="GcM1J28nANcI8CVDfX0t-24" vertex="1">
          <mxGeometry x="30" y="40" width="559.5" height="430" as="geometry" />
        </mxCell>
        <mxCell id="GcM1J28nANcI8CVDfX0t-26" style="edgeStyle=orthogonalEdgeStyle;rounded=0;orthogonalLoop=1;jettySize=auto;html=1;entryX=0;entryY=0.5;entryDx=0;entryDy=0;" parent="GcM1J28nANcI8CVDfX0t-24" source="GcM1J28nANcI8CVDfX0t-27" target="GcM1J28nANcI8CVDfX0t-28" edge="1">
          <mxGeometry relative="1" as="geometry">
            <mxPoint x="160" y="218" as="targetPoint" />
          </mxGeometry>
        </mxCell>
        <mxCell id="GcM1J28nANcI8CVDfX0t-27" value="Application Load Balancer" style="sketch=0;outlineConnect=0;fontColor=#232F3E;gradientColor=none;strokeColor=#ffffff;fillColor=#232F3E;dashed=0;verticalLabelPosition=middle;verticalAlign=bottom;align=center;html=1;whiteSpace=wrap;fontSize=10;fontStyle=1;spacing=3;shape=mxgraph.aws4.productIcon;prIcon=mxgraph.aws4.application_load_balancer;" parent="GcM1J28nANcI8CVDfX0t-24" vertex="1">
          <mxGeometry x="40" y="142.5" width="80" height="110" as="geometry" />
        </mxCell>
        <mxCell id="GcM1J28nANcI8CVDfX0t-33" style="edgeStyle=orthogonalEdgeStyle;rounded=0;orthogonalLoop=1;jettySize=auto;html=1;" parent="GcM1J28nANcI8CVDfX0t-24" source="GcM1J28nANcI8CVDfX0t-28" target="GcM1J28nANcI8CVDfX0t-32" edge="1">
          <mxGeometry relative="1" as="geometry" />
        </mxCell>
        <mxCell id="GcM1J28nANcI8CVDfX0t-28" value="Consumer Serveless" style="points=[[0,0],[0.25,0],[0.5,0],[0.75,0],[1,0],[1,0.25],[1,0.5],[1,0.75],[1,1],[0.75,1],[0.5,1],[0.25,1],[0,1],[0,0.75],[0,0.5],[0,0.25]];outlineConnect=0;gradientColor=none;html=1;whiteSpace=wrap;fontSize=12;fontStyle=0;container=1;pointerEvents=0;collapsible=0;recursiveResize=0;shape=mxgraph.aws4.group;grIcon=mxgraph.aws4.group_on_premise;strokeColor=#5A6C86;fillColor=none;verticalAlign=top;align=left;spacingLeft=30;fontColor=#5A6C86;dashed=0;" parent="GcM1J28nANcI8CVDfX0t-24" vertex="1">
          <mxGeometry x="170" y="85" width="310" height="225" as="geometry" />
        </mxCell>
        <mxCell id="GcM1J28nANcI8CVDfX0t-29" value="AWS Lambda Registro" style="sketch=0;outlineConnect=0;fontColor=#232F3E;gradientColor=none;strokeColor=#ffffff;fillColor=#232F3E;dashed=0;verticalLabelPosition=middle;verticalAlign=bottom;align=center;html=1;whiteSpace=wrap;fontSize=10;fontStyle=1;spacing=3;shape=mxgraph.aws4.productIcon;prIcon=mxgraph.aws4.lambda;" parent="GcM1J28nANcI8CVDfX0t-24" vertex="1">
          <mxGeometry x="355" y="160" width="80" height="115" as="geometry" />
        </mxCell>
        <mxCell id="GcM1J28nANcI8CVDfX0t-30" value="AWS Lambda Pessoa" style="sketch=0;outlineConnect=0;fontColor=#232F3E;gradientColor=none;strokeColor=#ffffff;fillColor=#232F3E;dashed=0;verticalLabelPosition=middle;verticalAlign=bottom;align=center;html=1;whiteSpace=wrap;fontSize=10;fontStyle=1;spacing=3;shape=mxgraph.aws4.productIcon;prIcon=mxgraph.aws4.lambda;" parent="GcM1J28nANcI8CVDfX0t-24" vertex="1">
          <mxGeometry x="215" y="160" width="80" height="115" as="geometry" />
        </mxCell>
        <mxCell id="GcM1J28nANcI8CVDfX0t-32" value="Dynamo" style="sketch=0;outlineConnect=0;fontColor=#232F3E;gradientColor=none;fillColor=#232F3E;strokeColor=none;dashed=0;verticalLabelPosition=bottom;verticalAlign=top;align=center;html=1;fontSize=12;fontStyle=0;aspect=fixed;pointerEvents=1;shape=mxgraph.aws4.dynamodb_dax;" parent="GcM1J28nANcI8CVDfX0t-24" vertex="1">
          <mxGeometry x="285.75" y="375" width="78" height="72" as="geometry" />
        </mxCell>
        <mxCell id="WlRQEAb6TAlqLv0lxq-g-4" style="edgeStyle=orthogonalEdgeStyle;rounded=0;orthogonalLoop=1;jettySize=auto;html=1;" parent="4ZW8SQwC3H2Tp52ZixBB-3" source="GcM1J28nANcI8CVDfX0t-34" target="GcM1J28nANcI8CVDfX0t-36" edge="1">
          <mxGeometry relative="1" as="geometry" />
        </mxCell>
        <mxCell id="GcM1J28nANcI8CVDfX0t-34" value="Amazon SNS" style="sketch=0;outlineConnect=0;fontColor=#232F3E;gradientColor=none;strokeColor=#ffffff;fillColor=#232F3E;dashed=0;verticalLabelPosition=middle;verticalAlign=bottom;align=center;html=1;whiteSpace=wrap;fontSize=10;fontStyle=1;spacing=3;shape=mxgraph.aws4.productIcon;prIcon=mxgraph.aws4.sns;" parent="4ZW8SQwC3H2Tp52ZixBB-3" vertex="1">
          <mxGeometry x="1720" y="580" width="80" height="100" as="geometry" />
        </mxCell>
        <mxCell id="GcM1J28nANcI8CVDfX0t-36" value="Amazon Simple Email Service" style="sketch=0;outlineConnect=0;fontColor=#232F3E;gradientColor=none;strokeColor=#ffffff;fillColor=#232F3E;dashed=0;verticalLabelPosition=middle;verticalAlign=bottom;align=center;html=1;whiteSpace=wrap;fontSize=10;fontStyle=1;spacing=3;shape=mxgraph.aws4.productIcon;prIcon=mxgraph.aws4.simple_email_service;" parent="4ZW8SQwC3H2Tp52ZixBB-3" vertex="1">
          <mxGeometry x="1505.5" y="575" width="80" height="110" as="geometry" />
        </mxCell>
        <mxCell id="GcM1J28nANcI8CVDfX0t-46" value="" style="endArrow=classic;html=1;" parent="4ZW8SQwC3H2Tp52ZixBB-3" edge="1">
          <mxGeometry width="50" height="50" relative="1" as="geometry">
            <mxPoint x="1615.5" y="260" as="sourcePoint" />
            <mxPoint x="1695.5" y="260" as="targetPoint" />
          </mxGeometry>
        </mxCell>
        <mxCell id="WlRQEAb6TAlqLv0lxq-g-1" value="Amazon SQS" style="sketch=0;outlineConnect=0;fontColor=#232F3E;gradientColor=none;strokeColor=#ffffff;fillColor=#232F3E;dashed=0;verticalLabelPosition=middle;verticalAlign=bottom;align=center;html=1;whiteSpace=wrap;fontSize=10;fontStyle=1;spacing=3;shape=mxgraph.aws4.productIcon;prIcon=mxgraph.aws4.sqs;" parent="4ZW8SQwC3H2Tp52ZixBB-3" vertex="1">
          <mxGeometry x="1515.5" y="222.5" width="84.5" height="100" as="geometry" />
        </mxCell>
        <mxCell id="WlRQEAb6TAlqLv0lxq-g-3" style="edgeStyle=orthogonalEdgeStyle;rounded=0;orthogonalLoop=1;jettySize=auto;html=1;" parent="4ZW8SQwC3H2Tp52ZixBB-3" source="GcM1J28nANcI8CVDfX0t-35" target="GcM1J28nANcI8CVDfX0t-34" edge="1">
          <mxGeometry relative="1" as="geometry" />
        </mxCell>
        <mxCell id="GcM1J28nANcI8CVDfX0t-35" value="Dead Letter&lt;br&gt;SQS Queue" style="sketch=0;outlineConnect=0;fontColor=#232F3E;gradientColor=none;strokeColor=#232F3E;fillColor=#ffffff;dashed=0;verticalLabelPosition=bottom;verticalAlign=top;align=center;html=1;fontSize=12;fontStyle=0;aspect=fixed;shape=mxgraph.aws4.resourceIcon;resIcon=mxgraph.aws4.queue;" parent="4ZW8SQwC3H2Tp52ZixBB-3" vertex="1">
          <mxGeometry x="1730" y="470" width="60" height="60" as="geometry" />
        </mxCell>
        <mxCell id="WlRQEAb6TAlqLv0lxq-g-2" style="edgeStyle=orthogonalEdgeStyle;rounded=0;orthogonalLoop=1;jettySize=auto;html=1;exitX=0;exitY=0.75;exitDx=0;exitDy=0;" parent="4ZW8SQwC3H2Tp52ZixBB-3" source="GcM1J28nANcI8CVDfX0t-28" target="GcM1J28nANcI8CVDfX0t-35" edge="1">
          <mxGeometry relative="1" as="geometry">
            <Array as="points">
              <mxPoint x="1816" y="309" />
              <mxPoint x="1816" y="500" />
            </Array>
          </mxGeometry>
        </mxCell>
        <mxCell id="WlRQEAb6TAlqLv0lxq-g-6" style="edgeStyle=orthogonalEdgeStyle;rounded=0;orthogonalLoop=1;jettySize=auto;html=1;" parent="4ZW8SQwC3H2Tp52ZixBB-3" source="WlRQEAb6TAlqLv0lxq-g-5" target="GcM1J28nANcI8CVDfX0t-28" edge="1">
          <mxGeometry relative="1" as="geometry">
            <Array as="points">
              <mxPoint x="1866" y="340" />
            </Array>
          </mxGeometry>
        </mxCell>
        <mxCell id="WlRQEAb6TAlqLv0lxq-g-5" value="Retry&lt;br&gt;SQS Queue" style="sketch=0;outlineConnect=0;fontColor=#232F3E;gradientColor=none;strokeColor=#232F3E;fillColor=#ffffff;dashed=0;verticalLabelPosition=bottom;verticalAlign=top;align=center;html=1;fontSize=12;fontStyle=0;aspect=fixed;shape=mxgraph.aws4.resourceIcon;resIcon=mxgraph.aws4.queue;" parent="4ZW8SQwC3H2Tp52ZixBB-3" vertex="1">
          <mxGeometry x="1835.5" y="470" width="60" height="60" as="geometry" />
        </mxCell>
        <mxCell id="GcM1J28nANcI8CVDfX0t-5" style="edgeStyle=orthogonalEdgeStyle;rounded=0;orthogonalLoop=1;jettySize=auto;html=1;" parent="1" source="gwXPmiW9-v_74yrq-nhE-1" target="gwXPmiW9-v_74yrq-nhE-27" edge="1">
          <mxGeometry relative="1" as="geometry">
            <Array as="points">
              <mxPoint x="-2651" y="-250" />
            </Array>
          </mxGeometry>
        </mxCell>
        <mxCell id="GcM1J28nANcI8CVDfX0t-39" style="edgeStyle=orthogonalEdgeStyle;rounded=0;orthogonalLoop=1;jettySize=auto;html=1;" parent="1" source="gwXPmiW9-v_74yrq-nhE-1" target="PenCrC6DvGoU3g6hiDPV-5" edge="1">
          <mxGeometry relative="1" as="geometry">
            <Array as="points">
              <mxPoint x="-2530" y="-65" />
              <mxPoint x="-2530" y="-65" />
            </Array>
          </mxGeometry>
        </mxCell>
        <mxCell id="gwXPmiW9-v_74yrq-nhE-1" value="" style="sketch=0;outlineConnect=0;fontColor=#232F3E;gradientColor=none;fillColor=#232F3D;strokeColor=none;dashed=0;verticalLabelPosition=bottom;verticalAlign=top;align=center;html=1;fontSize=12;fontStyle=0;aspect=fixed;pointerEvents=1;shape=mxgraph.aws4.users;" parent="1" vertex="1">
          <mxGeometry x="-2710" y="-90" width="118" height="118" as="geometry" />
        </mxCell>
        <mxCell id="GcM1J28nANcI8CVDfX0t-6" value="Usuarios" style="text;html=1;align=center;verticalAlign=middle;resizable=0;points=[];autosize=1;strokeColor=none;fillColor=none;" parent="1" vertex="1">
          <mxGeometry x="-2681" y="50" width="60" height="20" as="geometry" />
        </mxCell>
      </root>
    </mxGraphModel>
  </diagram>
</mxfile>
